<?xml version="1.0" encoding="iso-8859-1"?>
<!-- Generator: Adobe Illustrator 19.0.0, SVG Export Plug-In . SVG Version: 6.00 Build 0)  -->
<svg version="1.1" id="Capa_1" xmlns="http://www.w3.org/2000/svg" xmlns:xlink="http://www.w3.org/1999/xlink" x="0px" y="0px"
	 viewBox="0 0 433.716 433.716" style="enable-background:new 0 0 433.716 433.716;" xml:space="preserve">
<path style="fill:#FEDA4F;" d="M76.233,381.734c-28.153-8.282-52.267-29.227-63.281-58.668l-0.009-0.015
	c-18.58-49.671,6.863-105.527,56.532-124.114l98-36.659L178.273,7.078l192.433,13.097l-2.541,36.557"/>
<path d="M76.237,388.563c-0.638,0-1.287-0.09-1.93-0.28c-31.084-9.144-56.383-32.579-67.7-62.694
	c-0.02-0.049-0.039-0.099-0.056-0.147c-19.948-53.325,7.207-112.942,60.532-132.9l93.887-35.122L171.463,6.602
	c0.261-3.756,3.516-6.593,7.274-6.337l192.433,13.097c1.807,0.123,3.494,0.959,4.683,2.326c1.191,1.367,1.789,3.151,1.662,4.958
	l-2.541,36.557c-0.261,3.761-3.523,6.598-7.284,6.337s-6.598-3.523-6.337-7.284l2.067-29.737L184.608,14.35l-10.325,148.4
	c-0.186,2.669-1.913,4.983-4.419,5.92l-98,36.659C25.632,222.632,2.07,274.295,19.289,320.535c0.019,0.046,0.036,0.092,0.053,0.138
	c9.796,26.18,31.783,46.56,58.815,54.513c3.616,1.063,5.687,4.859,4.622,8.475C81.908,386.636,79.187,388.563,76.237,388.563z"/>
<path style="fill:#FBAD4A;" d="M125.66,239.864l97.999-36.659l10.798-155.199L426.89,61.103l-16.041,230.675
	c-3.669,52.884-49.741,89.66-102.765,89.66h-0.015c-3.057,0-6.057-0.179-9.025-0.492l-105.798,39.579
	c-49.678,18.58-105.523-6.856-124.112-56.532l-0.009-0.017C50.548,314.307,75.991,258.453,125.66,239.864L125.66,239.864z"/>
<path d="M159.575,433.467c-41.81,0.002-81.236-25.576-96.78-66.942c-0.02-0.053-0.041-0.104-0.061-0.157
	c-19.948-53.321,7.207-112.94,60.534-132.898c0,0,0,0,0.002,0l93.885-35.12l10.493-150.818c0.261-3.756,3.517-6.593,7.274-6.337
	L427.354,54.29c1.807,0.123,3.494,0.961,4.683,2.326c1.19,1.365,1.789,3.151,1.662,4.958l-16.041,230.675
	c-3.797,54.736-50.905,96.014-109.577,96.014c-2.673,0-5.344-0.121-8.127-0.37l-104.317,39.026
	C183.763,431.361,171.568,433.467,159.575,433.467z M75.474,361.456c0.02,0.049,0.039,0.097,0.056,0.147
	c17.316,46.273,69.05,69.837,115.326,52.529l105.796-39.579c0.992-0.37,2.055-0.507,3.108-0.396c2.9,0.305,5.617,0.454,8.31,0.454
	c51.424,0,92.675-35.814,95.971-83.306l15.566-223.857L240.795,55.28l-10.325,148.4c-0.186,2.669-1.913,4.983-4.419,5.92
	l-97.999,36.659h0.002C81.821,263.561,58.255,315.215,75.474,361.456z"/>
<rect x="127.025" y="249.827" transform="matrix(-0.8667 0.4988 -0.4988 -0.8667 421.4866 575.5096)" width="13.653" height="188.481"/>
<path d="M289.275,391.879l-2.265-6.656c-3.726-10.952-5.613-22.443-5.613-34.157c0-58.549,47.633-106.182,106.18-106.182
	c9.334,0,18.616,1.22,27.592,3.628l5.431,1.458l-2.939,42.279c-3.797,54.736-50.905,96.014-109.577,96.014
	c-2.674,0-5.345-0.121-8.131-0.37L289.275,391.879z M298.163,373.988l1.597,0.169c2.9,0.305,5.617,0.454,8.31,0.454
	c51.424,0,92.675-35.814,95.971-83.306l2.147-30.889c-6.106-1.248-12.344-1.877-18.609-1.877c-51.019,0-92.527,41.508-92.527,92.529
	c0,7.83,0.966,15.543,2.877,23.009L298.163,373.988z"/>
<path d="M274.21,246.87c-1.398,0-2.809-0.428-4.024-1.318l-48.329-35.347c-3.043-2.225-3.705-6.497-1.48-9.54
	c2.225-3.043,6.497-3.705,9.54-1.48l48.329,35.347c3.043,2.225,3.705,6.497,1.48,9.54C278.388,245.901,276.313,246.87,274.21,246.87
	z"/>
<rect x="319.573" y="20.659" transform="matrix(-0.0658 0.9978 -0.9978 -0.0658 459.5045 -206.4621)" width="13.653" height="182.42"/>
<path d="M195.615,188.934c-1.359,0-2.729-0.404-3.924-1.246l-27.001-19.009c-3.082-2.171-3.823-6.429-1.652-9.511
	s6.429-3.823,9.511-1.652l27.001,19.009c3.082,2.171,3.823,6.429,1.652,9.511C199.873,187.925,197.76,188.934,195.615,188.934z"/>
<g>
</g>
<g>
</g>
<g>
</g>
<g>
</g>
<g>
</g>
<g>
</g>
<g>
</g>
<g>
</g>
<g>
</g>
<g>
</g>
<g>
</g>
<g>
</g>
<g>
</g>
<g>
</g>
<g>
</g>
</svg>
