<svg id="Capa_1" enable-background="new 0 0 512 512" height="512" viewBox="0 0 512 512" width="512" xmlns="http://www.w3.org/2000/svg"><g><path d="m409.268 54.719h-173.284l20.016 457.281c123.771 0 224.107-198.004 224.107-309.72 0-58.204-27.245-110.656-70.839-147.561z" fill="#e50058"/><path d="m102.732 54.719c-43.595 36.905-70.84 89.357-70.84 147.561.001 111.716 100.337 309.72 224.108 309.72v-457.281z" fill="#ff415b"/><g fill="#fff5f5"><path d="m240.054 411.953h31.893v30h-31.893z"/><path d="m170.953 337.537h31.893v30h-31.893z"/><path d="m240.054 263.12h31.893v30h-31.893z"/></g><path d="m309.154 337.537h31.893v30h-31.893z" fill="#ebebf0"/><path d="m378.256 263.12h31.893v30h-31.893z" fill="#ebebf0"/><path d="m101.852 263.12h31.893v30h-31.893z" fill="#fff5f5"/><path d="m170.953 188.704h31.893v30h-31.893z" fill="#fff5f5"/><path d="m309.154 188.704h31.893v30h-31.893z" fill="#ebebf0"/><path d="m256 0-20.016 54.719 20.016 83.742 47.801-42.152 57.37 19.112 48.097-60.703c-40.081-33.929-93.981-54.718-153.268-54.718z" fill="#00cc76"/><path d="m102.732 54.719 48.097 60.703 57.37-19.112 47.801 42.151v-138.461c-59.287 0-113.187 20.789-153.268 54.719z" fill="#a5e887"/></g></svg>