<?xml version="1.0"?>
<svg xmlns="http://www.w3.org/2000/svg" xmlns:xlink="http://www.w3.org/1999/xlink" version="1.1" id="Capa_1" x="0px" y="0px" viewBox="0 0 512 512" style="enable-background:new 0 0 512 512;" xml:space="preserve" width="512px" height="512px" class=""><g><path style="fill:#00E62C" d="M256,0C115.3,0,0,115.3,0,256s115.3,256,256,256s256-115.3,256-256S396.7,0,256,0z" data-original="#77DD00" class="active-path" data-old_color="#77DD00"/><path style="fill:#0AC42E" d="M512,256c0,140.7-115.3,256-256,256V0C396.7,0,512,115.3,512,256z" data-original="#66BB00" class="" data-old_color="#66BB00"/><polygon style="fill:#E7E7E7" points="401.8,212.5 226,388.299 99.699,262.299 142.301,219.699 226,303.699 256,273.699   359.5,170.2 " data-original="#E7E7E7" class=""/><polygon style="fill:#D7DAD8" points="401.8,212.5 256,358.299 256,273.699 359.5,170.2 " data-original="#D3D3D8" class="" data-old_color="#D3D3D8"/></g> </svg>
