<svg id="Capa_1" enable-background="new 0 0 510 510" height="512" viewBox="0 0 510 510" width="512" xmlns="http://www.w3.org/2000/svg"><g><path d="m457.519 98.273c-5.701-8.551-14.403-14.308-24.504-16.209-10.101-1.902-20.3.298-28.72 6.192l-5.693 3.985-17.204-24.577 5.693-3.985c15.09-10.563 33.37-14.504 51.473-11.097s33.699 13.724 43.917 29.051z" fill="#3b5a71"/><path d="m256 .103 38.346 318.69h-280.356l-13.95-62.43.06-1.91c1.53-46.28 20.41-89.8 53.17-122.56l78.67-78.67c34.31-34.3 79.02-52.01 124.06-53.12z" fill="#00ddc1"/><path d="m427.93 253.083v65.71h-171.93v-318.69c48.08-1.19 96.54 16.51 133.15 53.12 26.55 26.56 44.02 60.08 50.5 96.94 6.15 34.95 2.09 70.46-11.72 102.92z" fill="#00b5bc"/><path d="m317.67 9.183-61.67 59.2v-41.58l26.5-25.44c11.9 1.43 23.68 4.05 35.17 7.82z" fill="#00ddc1"/><path d="m256 26.803v41.58l-205.61 197.39-20.78-21.64z" fill="#a5ffb4"/><path d="m378.56 43.443-122.56 116.86v-41.45l97.76-93.21c8.64 5.16 16.94 11.09 24.8 17.8z" fill="#00ddc1"/><path d="m256 118.853v41.45l-110.65 105.51-20.7-21.72z" fill="#a5ffb4"/><path d="m420.68 95.493-164.68 159.97v-41.82l147.94-143.71c6.31 8.07 11.91 16.61 16.74 25.56z" fill="#00ddc1"/><path d="m256 213.643v41.82l-10.55 10.25-20.9-21.52z" fill="#a5ffb4"/><path d="m439.653 150.167c-1.212-6.888-2.807-13.659-4.774-20.29l-120.211 114.2 20.662 21.75 106.296-100.981c-.461-4.897-1.113-9.793-1.973-14.679z" fill="#00ddc1"/><path d="m510 237.683v15c0 34.25-6.7 67.65-19.93 99.27-12.78 30.57-31.05 58.1-54.29 81.81-48.16 49.13-111.92 76.19-179.56 76.19h-.22v-272.27z" fill="#00ddc1"/><path d="m274.304 237.683-18.304 272.27h-2.22c-67.64 0-131.4-27.06-179.56-76.19-23.24-23.71-41.51-51.24-54.29-81.81-13.23-31.62-19.93-65.02-19.93-99.27v-15z" fill="#a5ffb4"/><path d="m274.304 237.683-18.304 238.24c-.33.01-.67.01-1 .01-120.52 0-218.57-98.05-218.57-218.57v-19.68z" fill="#ff7c48"/><path d="m473.57 237.683v19.68c0 120.19-97.51 218.03-217.57 218.56v-238.24z" fill="#ff415b"/><path d="m135 299.953h30v30h-30z" fill="#3b5a71"/><path d="m190 344.953h30v30h-30z" fill="#3b5a71"/><path d="m290 344.953h30v30h-30z" fill="#2f374f"/><path d="m256 299.953h14v30h-14z" fill="#002659"/><path d="m242 299.953h14v30h-14z" fill="#3b5a71"/><path d="m345 299.953h30v30h-30z" fill="#2f374f"/></g></svg>